<svg width="auto" height="66" viewBox="0 0 161 66" fill="none" xmlns="http://www.w3.org/2000/svg">
<path d="M14.34 11.08C13.972 11.08 13.652 11.16 13.38 11.32C13.108 11.464 12.884 11.624 12.708 11.8C12.5 12.008 12.324 12.248 12.18 12.52V19.72C12.356 20.136 12.564 20.496 12.804 20.8C13.012 21.072 13.26 21.32 13.548 21.544C13.836 21.768 14.18 21.88 14.58 21.88C14.852 21.88 15.124 21.792 15.396 21.616C15.684 21.44 15.94 21.144 16.164 20.728C16.404 20.296 16.596 19.736 16.74 19.048C16.9 18.36 16.98 17.504 16.98 16.48C16.98 15.456 16.9 14.6 16.74 13.912C16.596 13.224 16.396 12.672 16.14 12.256C15.9 11.84 15.62 11.544 15.3 11.368C14.996 11.176 14.676 11.08 14.34 11.08ZM14.7 10.6C15.276 10.6 15.828 10.736 16.356 11.008C16.884 11.264 17.356 11.648 17.772 12.16C18.188 12.656 18.516 13.272 18.756 14.008C19.012 14.728 19.14 15.552 19.14 16.48C19.14 17.408 19.012 18.24 18.756 18.976C18.516 19.696 18.196 20.312 17.796 20.824C17.412 21.32 16.964 21.704 16.452 21.976C15.956 22.232 15.452 22.36 14.94 22.36C14.46 22.36 14.044 22.264 13.692 22.072C13.34 21.896 13.052 21.696 12.828 21.472C12.556 21.2 12.34 20.896 12.18 20.56V22H8.82001V21.76L10.26 21.4V5.8L8.82001 5.44V5.2H12.18V11.8C12.324 11.576 12.516 11.376 12.756 11.2C12.964 11.056 13.22 10.92 13.524 10.792C13.844 10.664 14.236 10.6 14.7 10.6Z" fill="black"/>
<path d="M28.96 13.6C28.96 13.232 29.088 12.92 29.344 12.664C29.6 12.408 29.912 12.28 30.28 12.28C30.648 12.28 30.96 12.408 31.216 12.664C31.472 12.92 31.6 13.232 31.6 13.6C31.6 13.968 31.472 14.28 31.216 14.536C30.96 14.792 30.648 14.92 30.28 14.92C29.912 14.92 29.6 14.792 29.344 14.536C29.088 14.28 28.96 13.968 28.96 13.6Z" fill="black"/>
<path d="M37.28 21.4V11.56L35.84 11.2V10.96H39.2V12.4C39.36 12.08 39.576 11.784 39.848 11.512C40.072 11.288 40.36 11.08 40.712 10.888C41.064 10.696 41.48 10.6 41.96 10.6C42.568 10.6 43.064 10.712 43.448 10.936C43.848 11.16 44.168 11.408 44.408 11.68C44.696 12 44.92 12.36 45.08 12.76C45.288 12.36 45.536 12 45.824 11.68C46.08 11.408 46.392 11.16 46.76 10.936C47.128 10.712 47.568 10.6 48.08 10.6C48.56 10.6 49 10.688 49.4 10.864C49.816 11.04 50.176 11.288 50.48 11.608C50.784 11.912 51.016 12.288 51.176 12.736C51.352 13.168 51.44 13.656 51.44 14.2V21.4L52.88 21.76V22H48.2V21.76L49.52 21.4V14.2C49.52 13.064 49.336 12.264 48.968 11.8C48.616 11.32 48.2 11.08 47.72 11.08C47.32 11.08 46.976 11.192 46.688 11.416C46.4 11.64 46.152 11.888 45.944 12.16C45.704 12.48 45.496 12.84 45.32 13.24V21.4L46.64 21.76V22H42.08V21.76L43.4 21.4V14.2C43.4 13.064 43.216 12.264 42.848 11.8C42.496 11.32 42.08 11.08 41.6 11.08C41.2 11.08 40.856 11.192 40.568 11.416C40.28 11.64 40.032 11.888 39.824 12.16C39.584 12.48 39.376 12.84 39.2 13.24V21.4L40.52 21.76V22H35.84V21.76L37.28 21.4Z" fill="black"/>
<path d="M64.74 11.56V21.4L66.18 21.76V22H62.82V20.56C62.644 20.896 62.42 21.2 62.148 21.472C61.924 21.696 61.636 21.896 61.284 22.072C60.948 22.264 60.54 22.36 60.06 22.36C59.58 22.36 59.132 22.272 58.716 22.096C58.316 21.92 57.964 21.68 57.66 21.376C57.356 21.056 57.116 20.68 56.94 20.248C56.78 19.8 56.7 19.304 56.7 18.76V11.56L55.26 11.2V10.96H59.94V11.2L58.62 11.56V18.76C58.62 19.896 58.796 20.704 59.148 21.184C59.516 21.648 59.94 21.88 60.42 21.88C60.804 21.88 61.14 21.768 61.428 21.544C61.732 21.32 61.988 21.072 62.196 20.8C62.436 20.496 62.644 20.136 62.82 19.72V11.56L61.5 11.2V10.96H66.18V11.2L64.74 11.56ZM69.1772 21.4V5.8L67.7372 5.44V5.2H71.0972V21.4L72.5372 21.76V22H67.7372V21.76L69.1772 21.4ZM80.8144 21.52C80.8144 20.848 80.9504 20.256 81.2224 19.744C81.4944 19.216 81.8384 18.768 82.2544 18.4H82.4944C82.4624 18.608 82.4384 18.816 82.4224 19.024C82.4064 19.2 82.3904 19.4 82.3744 19.624C82.3744 19.832 82.3744 20.024 82.3744 20.2C82.3744 20.472 82.3744 20.72 82.3744 20.944C82.3904 21.152 82.4064 21.336 82.4224 21.496C82.4384 21.672 82.4624 21.84 82.4944 22H73.9744L79.9744 11.44H76.1344C76.1344 12.112 75.9984 12.712 75.7264 13.24C75.4544 13.752 75.1104 14.192 74.6944 14.56H74.4544C74.4704 14.352 74.4864 14.144 74.5024 13.936C74.5184 13.76 74.5344 13.568 74.5504 13.36C74.5664 13.136 74.5744 12.936 74.5744 12.76C74.5744 12.488 74.5664 12.248 74.5504 12.04C74.5344 11.816 74.5184 11.624 74.5024 11.464C74.4864 11.288 74.4704 11.12 74.4544 10.96H82.4944L76.4944 21.52H80.8144ZM90.6469 16.12C89.2549 16.12 88.2229 16.432 87.5509 17.056C86.8949 17.664 86.5669 18.512 86.5669 19.6C86.5669 20.32 86.7429 20.88 87.0949 21.28C87.4469 21.68 87.8309 21.88 88.2469 21.88C88.6309 21.88 88.9669 21.768 89.2549 21.544C89.5589 21.32 89.8149 21.072 90.0229 20.8C90.2629 20.496 90.4709 20.136 90.6469 19.72V16.12ZM88.8469 10.96C88.3669 10.96 87.9669 11.128 87.6469 11.464C87.3269 11.784 87.1669 12.216 87.1669 12.76C87.1669 12.888 87.1669 13 87.1669 13.096C87.1829 13.192 87.1989 13.28 87.2149 13.36C87.2309 13.44 87.2549 13.52 87.2869 13.6L85.3669 14.08C85.3349 14.032 85.3109 13.968 85.2949 13.888C85.2789 13.808 85.2629 13.72 85.2469 13.624C85.2469 13.528 85.2469 13.4 85.2469 13.24C85.2469 12.904 85.3269 12.584 85.4869 12.28C85.6469 11.96 85.8789 11.68 86.1829 11.44C86.5029 11.184 86.8789 10.984 87.3109 10.84C87.7589 10.68 88.2709 10.6 88.8469 10.6C89.9989 10.6 90.9029 10.928 91.5589 11.584C92.2309 12.24 92.5669 13.112 92.5669 14.2V21.4L94.0069 21.76V22H90.6469V20.56C90.4709 20.896 90.2469 21.2 89.9749 21.472C89.7509 21.696 89.4629 21.896 89.1109 22.072C88.7749 22.264 88.3669 22.36 87.8869 22.36C86.7349 22.36 85.8629 22.088 85.2709 21.544C84.6949 21 84.4069 20.272 84.4069 19.36C84.4069 18.912 84.5269 18.464 84.7669 18.016C85.0229 17.568 85.3989 17.168 85.8949 16.816C86.4069 16.464 87.0549 16.184 87.8389 15.976C88.6229 15.752 89.5589 15.64 90.6469 15.64V14.2C90.6469 13 90.4629 12.16 90.0949 11.68C89.7429 11.2 89.3269 10.96 88.8469 10.96ZM100.363 11.08C100.059 11.08 99.7551 11.176 99.4511 11.368C99.1631 11.544 98.8991 11.84 98.6591 12.256C98.4191 12.672 98.2191 13.224 98.0591 13.912C97.9151 14.6 97.8431 15.456 97.8431 16.48C97.8431 17.504 97.9151 18.36 98.0591 19.048C98.2191 19.736 98.4271 20.296 98.6831 20.728C98.9391 21.144 99.2271 21.44 99.5471 21.616C99.8831 21.792 100.235 21.88 100.603 21.88C101.019 21.88 101.411 21.8 101.779 21.64C102.147 21.48 102.475 21.264 102.763 20.992C103.051 20.72 103.283 20.392 103.459 20.008C103.651 19.624 103.779 19.208 103.843 18.76H104.203C104.139 19.272 103.995 19.752 103.771 20.2C103.563 20.632 103.291 21.008 102.955 21.328C102.619 21.648 102.227 21.896 101.779 22.072C101.347 22.264 100.875 22.36 100.363 22.36C99.7391 22.36 99.1391 22.232 98.5631 21.976C98.0031 21.704 97.5071 21.32 97.0751 20.824C96.6431 20.312 96.2991 19.696 96.0431 18.976C95.8031 18.24 95.6831 17.408 95.6831 16.48C95.6831 15.552 95.8031 14.728 96.0431 14.008C96.2991 13.272 96.6351 12.656 97.0511 12.16C97.4671 11.648 97.9391 11.264 98.4671 11.008C98.9951 10.736 99.5471 10.6 100.123 10.6C100.507 10.6 100.843 10.664 101.131 10.792C101.435 10.92 101.691 11.056 101.899 11.2C102.139 11.376 102.347 11.576 102.523 11.8C102.587 11.56 102.715 11.336 102.907 11.128C103.115 10.92 103.307 10.784 103.483 10.72H103.843C103.811 10.928 103.787 11.144 103.771 11.368C103.755 11.56 103.739 11.768 103.723 11.992C103.723 12.216 103.723 12.432 103.723 12.64C103.723 12.88 103.723 13.128 103.723 13.384C103.739 13.624 103.755 13.84 103.771 14.032C103.787 14.256 103.811 14.472 103.843 14.68H103.483C103.179 13.528 102.731 12.64 102.139 12.016C101.563 11.392 100.971 11.08 100.363 11.08Z" fill="black"/>
<line x1="8" y1="32.5" x2="108" y2="32.5" stroke="black"/>
<path d="M3.71062 46.63C3.51462 46.63 3.32329 46.686 3.13662 46.798C2.95929 46.9007 2.79596 47.0733 2.64662 47.316C2.50662 47.5587 2.38996 47.8807 2.29662 48.282C2.21262 48.6833 2.17062 49.1827 2.17062 49.78C2.17062 50.3773 2.21262 50.8767 2.29662 51.278C2.38996 51.6793 2.50196 52.006 2.63262 52.258C2.77262 52.5007 2.92196 52.6733 3.08062 52.776C3.24862 52.8787 3.41196 52.93 3.57062 52.93C3.79462 52.93 3.99062 52.8647 4.15862 52.734C4.33596 52.6033 4.48529 52.4587 4.60662 52.3C4.74662 52.1227 4.86796 51.9127 4.97062 51.67V47.47C4.87729 47.3113 4.76996 47.1713 4.64862 47.05C4.54596 46.9473 4.41529 46.854 4.25662 46.77C4.10729 46.6767 3.92529 46.63 3.71062 46.63ZM6.09062 52.65L6.93062 52.86V53H4.97062V52.16C4.86796 52.356 4.73729 52.5333 4.57862 52.692C4.44796 52.8227 4.27996 52.9393 4.07462 53.042C3.87862 53.154 3.64062 53.21 3.36062 53.21C3.06196 53.21 2.76329 53.1353 2.46462 52.986C2.17529 52.8273 1.91396 52.6033 1.68062 52.314C1.45662 52.0153 1.26996 51.656 1.12062 51.236C0.980624 50.8067 0.910624 50.3213 0.910624 49.78C0.910624 49.2387 0.980624 48.758 1.12062 48.338C1.26996 47.9087 1.46596 47.5493 1.70862 47.26C1.95129 46.9613 2.22662 46.7373 2.53462 46.588C2.84262 46.4293 3.16462 46.35 3.50062 46.35C3.76196 46.35 3.98596 46.3873 4.17262 46.462C4.35929 46.5367 4.51329 46.616 4.63462 46.7C4.77462 46.8027 4.88662 46.9193 4.97062 47.05V43.55L4.13062 43.34V43.2H6.09062V52.65ZM21.4206 49.78C21.4206 50.3773 21.4626 50.8767 21.5466 51.278C21.64 51.6793 21.7566 52.006 21.8966 52.258C22.046 52.5007 22.2093 52.6733 22.3866 52.776C22.5733 52.8787 22.7646 52.93 22.9606 52.93C23.2033 52.93 23.432 52.8833 23.6466 52.79C23.8613 52.6967 24.0526 52.5707 24.2206 52.412C24.3886 52.2533 24.524 52.062 24.6266 51.838C24.7386 51.614 24.8133 51.3713 24.8506 51.11H25.0606C25.0233 51.4087 24.9393 51.6887 24.8086 51.95C24.6873 52.202 24.5286 52.4213 24.3326 52.608C24.1366 52.7947 23.908 52.9393 23.6466 53.042C23.3946 53.154 23.1193 53.21 22.8206 53.21C22.466 53.21 22.13 53.1353 21.8126 52.986C21.4953 52.8273 21.2106 52.6033 20.9586 52.314C20.716 52.0153 20.52 51.656 20.3706 51.236C20.2306 50.8067 20.1606 50.3213 20.1606 49.78C20.1606 49.22 20.2306 48.7253 20.3706 48.296C20.5106 47.8667 20.6926 47.512 20.9166 47.232C21.15 46.9427 21.416 46.7233 21.7146 46.574C22.0226 46.4247 22.3446 46.35 22.6806 46.35C23.0166 46.35 23.334 46.4247 23.6326 46.574C23.9406 46.7233 24.2066 46.9427 24.4306 47.232C24.664 47.512 24.8506 47.8667 24.9906 48.296C25.1306 48.7253 25.2006 49.22 25.2006 49.78H21.4206ZM22.6806 46.56C22.5406 46.56 22.4006 46.6067 22.2606 46.7C22.1206 46.784 21.99 46.938 21.8686 47.162C21.7473 47.386 21.6446 47.6893 21.5606 48.072C21.486 48.4453 21.4393 48.9213 21.4206 49.5H23.9406C23.922 48.9213 23.8706 48.4453 23.7866 48.072C23.712 47.6893 23.614 47.386 23.4926 47.162C23.3713 46.938 23.2406 46.784 23.1006 46.7C22.9606 46.6067 22.8206 46.56 22.6806 46.56ZM40.955 53.21C40.6563 53.21 40.3997 53.1727 40.185 53.098C39.9703 53.0327 39.7977 52.9533 39.667 52.86C39.5083 52.7573 39.3777 52.6407 39.275 52.51C39.2377 52.65 39.1583 52.7807 39.037 52.902C38.925 53.0233 38.8177 53.1027 38.715 53.14H38.505C38.5143 53.0187 38.5237 52.8927 38.533 52.762C38.5423 52.65 38.5517 52.5333 38.561 52.412C38.5703 52.2813 38.575 52.1507 38.575 52.02C38.575 51.88 38.5703 51.74 38.561 51.6C38.5517 51.46 38.5423 51.334 38.533 51.222C38.5237 51.0913 38.5143 50.9607 38.505 50.83H38.715C38.8923 51.502 39.163 52.02 39.527 52.384C39.891 52.748 40.3203 52.93 40.815 52.93C41.207 52.93 41.5243 52.8087 41.767 52.566C42.019 52.3233 42.145 52.0247 42.145 51.67C42.145 51.418 42.0563 51.1987 41.879 51.012C41.711 50.8253 41.4963 50.6573 41.235 50.508C40.9737 50.3493 40.6937 50.1953 40.395 50.046C40.0963 49.8967 39.8163 49.7287 39.555 49.542C39.2937 49.3553 39.0743 49.136 38.897 48.884C38.729 48.632 38.645 48.324 38.645 47.96C38.645 47.7547 38.6917 47.554 38.785 47.358C38.8783 47.162 39.0043 46.9893 39.163 46.84C39.331 46.6907 39.5317 46.574 39.765 46.49C39.9983 46.3967 40.255 46.35 40.535 46.35C40.7777 46.35 40.9877 46.3873 41.165 46.462C41.3517 46.5367 41.5103 46.616 41.641 46.7C41.781 46.8027 41.9023 46.9193 42.005 47.05C42.0423 46.91 42.117 46.7793 42.229 46.658C42.3503 46.5367 42.4623 46.4573 42.565 46.42H42.775C42.7563 46.5413 42.7423 46.6673 42.733 46.798C42.7237 46.91 42.7143 47.0313 42.705 47.162C42.705 47.2927 42.705 47.4187 42.705 47.54C42.705 47.68 42.705 47.8247 42.705 47.974C42.7143 48.114 42.7237 48.24 42.733 48.352C42.7423 48.4827 42.7563 48.6087 42.775 48.73H42.565C42.3877 48.058 42.1263 47.54 41.781 47.176C41.4357 46.812 41.067 46.63 40.675 46.63C40.3577 46.63 40.0917 46.7373 39.877 46.952C39.6623 47.1573 39.555 47.4 39.555 47.68C39.555 47.9133 39.6437 48.114 39.821 48.282C39.9983 48.45 40.2177 48.6087 40.479 48.758C40.7403 48.898 41.025 49.0427 41.333 49.192C41.6503 49.3413 41.9397 49.514 42.201 49.71C42.4623 49.906 42.6817 50.1393 42.859 50.41C43.0363 50.6807 43.125 51.0073 43.125 51.39C43.125 51.614 43.069 51.838 42.957 52.062C42.8543 52.2767 42.705 52.4727 42.509 52.65C42.3223 52.818 42.0937 52.9533 41.823 53.056C41.5617 53.1587 41.2723 53.21 40.955 53.21ZM57.1288 52.65V46.91L56.2888 46.7V46.56H58.2488V52.65L59.0888 52.86V53H56.2888V52.86L57.1288 52.65ZM58.3188 44.95C58.3188 45.1273 58.2442 45.2907 58.0948 45.44C57.9548 45.58 57.7962 45.65 57.6188 45.65C57.4415 45.65 57.2782 45.58 57.1288 45.44C56.9888 45.2907 56.9188 45.1273 56.9188 44.95C56.9188 44.7727 56.9888 44.614 57.1288 44.474C57.2782 44.3247 57.4415 44.25 57.6188 44.25C57.7962 44.25 57.9548 44.3247 58.0948 44.474C58.2442 44.614 58.3188 44.7727 58.3188 44.95ZM74.6955 50.9C74.8542 50.9 75.0082 50.8627 75.1575 50.788C75.3069 50.704 75.4422 50.5733 75.5635 50.396C75.6849 50.2187 75.7782 49.9947 75.8435 49.724C75.9182 49.444 75.9555 49.1127 75.9555 48.73C75.9555 48.3473 75.9182 48.0207 75.8435 47.75C75.7782 47.47 75.6849 47.246 75.5635 47.078C75.4422 46.9007 75.3069 46.77 75.1575 46.686C75.0082 46.602 74.8542 46.56 74.6955 46.56C74.5369 46.56 74.3829 46.602 74.2335 46.686C74.0842 46.77 73.9489 46.9007 73.8275 47.078C73.7062 47.246 73.6082 47.47 73.5335 47.75C73.4682 48.0207 73.4355 48.3473 73.4355 48.73C73.4355 49.1127 73.4682 49.444 73.5335 49.724C73.6082 49.9947 73.7062 50.2187 73.8275 50.396C73.9489 50.5733 74.0842 50.704 74.2335 50.788C74.3829 50.8627 74.5369 50.9 74.6955 50.9ZM74.9755 56.304C75.3209 56.304 75.6335 56.2527 75.9135 56.15C76.1935 56.0567 76.4269 55.926 76.6135 55.758C76.8095 55.59 76.9589 55.394 77.0615 55.17C77.1642 54.946 77.2155 54.7127 77.2155 54.47C77.2155 53.5833 76.7722 53.14 75.8855 53.14H73.6455C73.1135 53.14 72.7215 53.0327 72.4695 52.818C72.2269 52.6033 72.1055 52.3373 72.1055 52.02C72.1055 51.8053 72.1569 51.6187 72.2595 51.46C72.3715 51.292 72.4929 51.1427 72.6235 51.012C72.7822 50.872 72.9595 50.7413 73.1555 50.62C72.9689 50.4987 72.8055 50.3493 72.6655 50.172C72.5349 50.0133 72.4182 49.8173 72.3155 49.584C72.2222 49.3507 72.1755 49.066 72.1755 48.73C72.1755 48.394 72.2362 48.0813 72.3575 47.792C72.4882 47.5027 72.6655 47.2507 72.8895 47.036C73.1135 46.8213 73.3795 46.6533 73.6875 46.532C73.9955 46.4107 74.3315 46.35 74.6955 46.35C74.8542 46.35 75.0082 46.364 75.1575 46.392C75.3069 46.42 75.4422 46.4527 75.5635 46.49C75.7035 46.5273 75.8342 46.574 75.9555 46.63C76.0302 46.5273 76.1189 46.434 76.2215 46.35C76.3149 46.2753 76.4315 46.21 76.5715 46.154C76.7115 46.098 76.8795 46.07 77.0755 46.07C77.3929 46.07 77.6402 46.1307 77.8175 46.252C78.0042 46.364 78.1489 46.49 78.2515 46.63C78.3635 46.798 78.4382 46.9847 78.4755 47.19L77.4255 47.4C77.3975 47.2133 77.3555 47.0407 77.2995 46.882C77.2529 46.7513 77.1875 46.63 77.1035 46.518C77.0195 46.406 76.9169 46.35 76.7955 46.35C76.6929 46.35 76.5995 46.3733 76.5155 46.42C76.4315 46.4667 76.3662 46.5133 76.3195 46.56C76.2542 46.6253 76.2029 46.6953 76.1655 46.77C76.5202 46.9847 76.7815 47.26 76.9495 47.596C77.1269 47.932 77.2155 48.31 77.2155 48.73C77.2155 49.066 77.1502 49.3787 77.0195 49.668C76.8982 49.9573 76.7255 50.2093 76.5015 50.424C76.2775 50.6387 76.0115 50.8067 75.7035 50.928C75.3955 51.0493 75.0595 51.11 74.6955 51.11C74.4995 51.11 74.3222 51.096 74.1635 51.068C74.0049 51.0307 73.8649 50.9887 73.7435 50.942C73.6035 50.8953 73.4775 50.8347 73.3655 50.76C73.2349 50.844 73.1182 50.9327 73.0155 51.026C72.9222 51.1007 72.8382 51.1893 72.7635 51.292C72.6982 51.3947 72.6655 51.4973 72.6655 51.6C72.6655 51.74 72.7309 51.8567 72.8615 51.95C72.9922 52.034 73.2535 52.076 73.6455 52.076H75.8855C76.4455 52.076 76.8982 52.258 77.2435 52.622C77.5982 52.9767 77.7755 53.4527 77.7755 54.05C77.7755 54.4047 77.7055 54.7313 77.5655 55.03C77.4349 55.338 77.2482 55.604 77.0055 55.828C76.7629 56.0613 76.4689 56.2433 76.1235 56.374C75.7782 56.5047 75.3955 56.57 74.9755 56.57C74.4529 56.57 73.9955 56.5093 73.6035 56.388C73.2209 56.276 72.9035 56.1173 72.6515 55.912C72.3995 55.716 72.2082 55.4827 72.0775 55.212C71.9562 54.9413 71.8955 54.6473 71.8955 54.33C71.8955 54.2087 71.9095 54.0967 71.9375 53.994C71.9655 53.9007 71.9982 53.8213 72.0355 53.756C72.0729 53.6813 72.1195 53.616 72.1755 53.56L73.2255 53.98C73.1975 54.0453 73.1742 54.1153 73.1555 54.19C73.1089 54.33 73.0855 54.47 73.0855 54.61C73.0855 55.1047 73.2489 55.5107 73.5755 55.828C73.9115 56.1453 74.3782 56.304 74.9755 56.304ZM91.9205 52.65V46.91L91.0805 46.7V46.56H93.0405V47.4C93.1338 47.2133 93.2598 47.0407 93.4185 46.882C93.5491 46.7513 93.7171 46.63 93.9225 46.518C94.1278 46.406 94.3705 46.35 94.6505 46.35C94.9305 46.35 95.1871 46.4013 95.4205 46.504C95.6631 46.6067 95.8731 46.7513 96.0505 46.938C96.2278 47.1153 96.3631 47.3347 96.4565 47.596C96.5591 47.848 96.6105 48.1327 96.6105 48.45V52.65L97.4505 52.86V53H94.7205V52.86L95.4905 52.65V48.45C95.4905 47.7873 95.3831 47.3207 95.1685 47.05C94.9631 46.77 94.7205 46.63 94.4405 46.63C94.2071 46.63 94.0065 46.6953 93.8385 46.826C93.6705 46.9567 93.5258 47.1013 93.4045 47.26C93.2645 47.4467 93.1431 47.6567 93.0405 47.89V52.65L93.8105 52.86V53H91.0805V52.86L91.9205 52.65ZM112.986 53.21C112.687 53.21 112.43 53.1727 112.216 53.098C112.001 53.0327 111.828 52.9533 111.698 52.86C111.539 52.7573 111.408 52.6407 111.306 52.51C111.268 52.65 111.189 52.7807 111.068 52.902C110.956 53.0233 110.848 53.1027 110.746 53.14H110.536C110.545 53.0187 110.554 52.8927 110.564 52.762C110.573 52.65 110.582 52.5333 110.592 52.412C110.601 52.2813 110.606 52.1507 110.606 52.02C110.606 51.88 110.601 51.74 110.592 51.6C110.582 51.46 110.573 51.334 110.564 51.222C110.554 51.0913 110.545 50.9607 110.536 50.83H110.746C110.923 51.502 111.194 52.02 111.558 52.384C111.922 52.748 112.351 52.93 112.846 52.93C113.238 52.93 113.555 52.8087 113.798 52.566C114.05 52.3233 114.176 52.0247 114.176 51.67C114.176 51.418 114.087 51.1987 113.91 51.012C113.742 50.8253 113.527 50.6573 113.266 50.508C113.004 50.3493 112.724 50.1953 112.426 50.046C112.127 49.8967 111.847 49.7287 111.586 49.542C111.324 49.3553 111.105 49.136 110.928 48.884C110.76 48.632 110.676 48.324 110.676 47.96C110.676 47.7547 110.722 47.554 110.816 47.358C110.909 47.162 111.035 46.9893 111.194 46.84C111.362 46.6907 111.562 46.574 111.796 46.49C112.029 46.3967 112.286 46.35 112.566 46.35C112.808 46.35 113.018 46.3873 113.196 46.462C113.382 46.5367 113.541 46.616 113.672 46.7C113.812 46.8027 113.933 46.9193 114.036 47.05C114.073 46.91 114.148 46.7793 114.26 46.658C114.381 46.5367 114.493 46.4573 114.596 46.42H114.806C114.787 46.5413 114.773 46.6673 114.764 46.798C114.754 46.91 114.745 47.0313 114.736 47.162C114.736 47.2927 114.736 47.4187 114.736 47.54C114.736 47.68 114.736 47.8247 114.736 47.974C114.745 48.114 114.754 48.24 114.764 48.352C114.773 48.4827 114.787 48.6087 114.806 48.73H114.596C114.418 48.058 114.157 47.54 113.812 47.176C113.466 46.812 113.098 46.63 112.706 46.63C112.388 46.63 112.122 46.7373 111.908 46.952C111.693 47.1573 111.586 47.4 111.586 47.68C111.586 47.9133 111.674 48.114 111.852 48.282C112.029 48.45 112.248 48.6087 112.51 48.758C112.771 48.898 113.056 49.0427 113.364 49.192C113.681 49.3413 113.97 49.514 114.232 49.71C114.493 49.906 114.712 50.1393 114.89 50.41C115.067 50.6807 115.156 51.0073 115.156 51.39C115.156 51.614 115.1 51.838 114.988 52.062C114.885 52.2767 114.736 52.4727 114.54 52.65C114.353 52.818 114.124 52.9533 113.854 53.056C113.592 53.1587 113.303 53.21 112.986 53.21Z" fill="black"/>
</svg>
